<mxfile host="app.diagrams.net" agent="Mozilla/5.0 (Windows NT 10.0; Win64; x64; rv:130.0) Gecko/20100101 Firefox/130.0" version="24.7.17">
  <diagram name="Page-1" id="pLpfgeYwGpFJaBxvxh2n">
    <mxGraphModel dx="1434" dy="782" grid="1" gridSize="10" guides="1" tooltips="1" connect="1" arrows="1" fold="1" page="1" pageScale="1" pageWidth="827" pageHeight="1169" math="0" shadow="0">
      <root>
        <mxCell id="0" />
        <mxCell id="1" parent="0" />
        <mxCell id="p97gS7HEvcgLnohrgNDr-1" value="" style="rounded=0;whiteSpace=wrap;html=1;" vertex="1" parent="1">
          <mxGeometry x="280" y="160" width="240" height="400" as="geometry" />
        </mxCell>
        <mxCell id="p97gS7HEvcgLnohrgNDr-2" value="" style="rounded=0;whiteSpace=wrap;html=1;" vertex="1" parent="1">
          <mxGeometry x="290" y="170" width="220" height="10" as="geometry" />
        </mxCell>
        <mxCell id="p97gS7HEvcgLnohrgNDr-3" value="" style="rounded=0;whiteSpace=wrap;html=1;" vertex="1" parent="1">
          <mxGeometry x="290" y="184" width="220" height="10" as="geometry" />
        </mxCell>
        <mxCell id="p97gS7HEvcgLnohrgNDr-4" value="" style="rounded=0;whiteSpace=wrap;html=1;" vertex="1" parent="1">
          <mxGeometry x="290" y="218" width="220" height="10" as="geometry" />
        </mxCell>
        <mxCell id="p97gS7HEvcgLnohrgNDr-5" value="" style="rounded=0;whiteSpace=wrap;html=1;" vertex="1" parent="1">
          <mxGeometry x="290" y="200" width="220" height="10" as="geometry" />
        </mxCell>
        <mxCell id="p97gS7HEvcgLnohrgNDr-9" value="" style="endArrow=classic;html=1;rounded=0;" edge="1" parent="1">
          <mxGeometry width="50" height="50" relative="1" as="geometry">
            <mxPoint x="210" y="174.5" as="sourcePoint" />
            <mxPoint x="280" y="174.5" as="targetPoint" />
          </mxGeometry>
        </mxCell>
      </root>
    </mxGraphModel>
  </diagram>
</mxfile>
